# xmcd CD database file
#
# Track frame offsets:
#	150
#	6820
#	10517
#	16127
#	19485
#	23882
#	28540
#	32337
#	37710
#	41827
#	45225
#	51030
#	59242
#	65185
#	72530
#	77145
#	80657
#	86217
#	90092
#	97567
#	104940
#	112902
#	118350
#	126705
#	135305
#	143527
#	150032
#	154894
#	157837
#	162147
#	170372
#	174467
#	181834
#	187939
#	193429
#	199854
#	205667
#	211604
#	217042
#	223282
#	229602
#	237009
#	242569
#	249737
#	253867
#	257757
#	264829
#	269802
#	274422
#	282552
#
# Disc length: 3892 seconds
#
# Revision: 2
# Processed by: cddbd v1.5.1PL0 Copyright (c) Steve Scherf et al.
# Submitted via: CDex 1.51
#
DISCID=be0f3232
DTITLE=NHKおかあさんといっしょ - どうようセレクション50
DYEAR=1900
DGENRE=
TTITLE0=おはなしゆびさん
TTITLE1=ことりのうた
TTITLE2=かえるのがっしょう
TTITLE3=おつかいありさん
TTITLE4=まつぼっくり
TTITLE5=じょうじょうじのたぬきばやし
TTITLE6=どんぐりころころ
TTITLE7=ゆうやけこやけ
TTITLE8=そうさん
TTITLE9=おべんとう
TTITLE10=うさぎ
TTITLE11=うれしいひなまつり
TTITLE12=いとまき
TTITLE13=はるがきた
TTITLE14=やぎさんゆうびん
TTITLE15=チューリップ
TTITLE16=げんこつやまのたぬきさん
TTITLE17=ふしぎなポケット
TTITLE18=あめふりくまのこ
TTITLE19=アイアイ
TTITLE20=てをたたきましょう
TTITLE21=こいのぼり
TTITLE22=あかとんぼ
TTITLE23=きしゃポッポ
TTITLE24=とんでったバナナ
TTITLE25=かわいいかくれんぼ
TTITLE26=とんぼのめがね
TTITLE27=ぶんぶんぶん
TTITLE28=おうま
TTITLE29=おべんとうばこのうた
TTITLE30=しゃぼんだま
TTITLE31=めだかのがっこう
TTITLE32=あめふり
TTITLE33=むすんでひらいて
TTITLE34=かたつむり
TTITLE35=サッちゃん
TTITLE36=うみ
TTITLE37=おしょうがつ
TTITLE38=おおきなくりのきのしたで
TTITLE39=たなばたさま
TTITLE40=くつがなる
TTITLE41=ななつのこ
TTITLE42=いぬのおまわりさん
TTITLE43=おなかのへるうた
TTITLE44=ちょうちょう
TTITLE45=こぶたぬきつねこ
TTITLE46=おかあさん
TTITLE47=ゆき
TTITLE48=やまのおんがくか
TTITLE49=おもちゃのチャチャチャ
EXTD=
EXTT0=
EXTT1=
EXTT2=
EXTT3=
EXTT4=
EXTT5=
EXTT6=
EXTT7=
EXTT8=
EXTT9=
EXTT10=
EXTT11=
EXTT12=
EXTT13=
EXTT14=
EXTT15=
EXTT16=
EXTT17=
EXTT18=
EXTT19=
EXTT20=
EXTT21=
EXTT22=
EXTT23=
EXTT24=
EXTT25=
EXTT26=
EXTT27=
EXTT28=
EXTT29=
EXTT30=
EXTT31=
EXTT32=
EXTT33=
EXTT34=
EXTT35=
EXTT36=
EXTT37=
EXTT38=
EXTT39=
EXTT40=
EXTT41=
EXTT42=
EXTT43=
EXTT44=
EXTT45=
EXTT46=
EXTT47=
EXTT48=
EXTT49=
PLAYORDER=
